<svg id="visual" viewBox="0 0 1920 1080" width="1920" height="1080" xmlns="http://www.w3.org/2000/svg" xmlns:xlink="http://www.w3.org/1999/xlink" version="1.1"><rect width="1920" height="1080" fill="#00375f"></rect><g><g transform="translate(1760 410)"><path d="M0 -168.3L131.6 -104.9L164.1 37.5L73 151.6L-73 151.6L-164.1 37.5L-131.6 -104.9Z" fill="none" stroke="#00ffff" stroke-width="2"></path></g><g transform="translate(300 473)"><path d="M0 -89L69.6 -55.5L86.8 19.8L38.6 80.2L-38.6 80.2L-86.8 19.8L-69.6 -55.5Z" fill="none" stroke="#00ffff" stroke-width="2"></path></g><g transform="translate(1273 710)"><path d="M0 -119L93 -74.2L116 26.5L51.6 107.2L-51.6 107.2L-116 26.5L-93 -74.2Z" fill="none" stroke="#00ffff" stroke-width="2"></path></g><g transform="translate(756 1038)"><path d="M0 -96L75.1 -59.9L93.6 21.4L41.7 86.5L-41.7 86.5L-93.6 21.4L-75.1 -59.9Z" fill="none" stroke="#00ffff" stroke-width="2"></path></g><g transform="translate(1892 1029)"><path d="M0 -162L126.7 -101L157.9 36L70.3 146L-70.3 146L-157.9 36L-126.7 -101Z" fill="none" stroke="#00ffff" stroke-width="2"></path></g></g></svg>